<?xml version="1.0" encoding="utf-8"?>
<!-- Generator: Adobe Illustrator 25.4.1, SVG Export Plug-In . SVG Version: 6.00 Build 0)  -->
<svg version="1.1" id="Layer_2_00000011743033026999719650000001952423262396698297_"
	 xmlns="http://www.w3.org/2000/svg" xmlns:xlink="http://www.w3.org/1999/xlink" x="0px" y="0px" viewBox="0 0 283.5 283.5"
	 style="enable-background:new 0 0 283.5 283.5;" xml:space="preserve">
<style type="text/css">
	.st0{fill:#C2948A;}
</style>
<g>
	<path class="st0" d="M172.2,164.2H46.3v12.3c0,4.5,3.7,8.2,8.2,8.2h117.6V164.2z M64.1,176.1c-0.6,0.6-1.5,1-2.4,1h-4.2
		c-1.9,0-3.4-1.5-3.4-3.4c0-0.9,0.4-1.8,1-2.4s1.5-1,2.4-1h4.2c1.9,0,3.4,1.5,3.4,3.4C65.1,174.6,64.8,175.5,64.1,176.1z
		 M79.6,176.1c-0.6,0.6-1.5,1-2.4,1H73c-1.9,0-3.4-1.5-3.4-3.4c0-0.9,0.4-1.8,1-2.4s1.5-1,2.4-1h4.2c1.9,0,3.4,1.5,3.4,3.4
		C80.6,174.6,80.3,175.5,79.6,176.1z"/>
	<rect x="64.6" y="81.7" class="st0" width="120.5" height="14.5"/>
	<path class="st0" d="M156.4,117.5c-1.9,0-3.4-1.5-3.4-3.4c0-0.9,0.4-1.8,1-2.4c0.6-0.6,1.5-1,2.4-1h32.2c1.9,0,3.4,1.5,3.4,3.4
		c0,0.9-0.4,1.8-1,2.4c-0.6,0.6-1.5,1-2.4,1h14.9V72c0-4.5-3.7-8.2-8.2-8.2H54.5c-4.5,0-8.2,3.7-8.2,8.2v85.3h125.8v-9.9h-15.7
		c-1.9,0-3.4-1.5-3.4-3.4v-15.6c0-1.9,1.5-3.4,3.4-3.4h16.1c1.2-4.3,5.2-7.5,10-7.5L156.4,117.5L156.4,117.5z M96.8,144
		c0,1.9-1.5,3.4-3.4,3.4H61.2c-1.9,0-3.4-1.5-3.4-3.4v-15.6c0-1.9,1.5-3.4,3.4-3.4h32.2c1.9,0,3.4,1.5,3.4,3.4V144z M95.8,116.4
		c-0.6,0.6-1.5,1-2.4,1H61.2c-1.9,0-3.4-1.5-3.4-3.4c0-0.9,0.4-1.8,1-2.4c0.6-0.6,1.5-1,2.4-1h32.2c1.9,0,3.4,1.5,3.4,3.4
		C96.8,115,96.4,115.8,95.8,116.4z M144.4,144c0,1.9-1.5,3.4-3.4,3.4h-32.2c-1.9,0-3.4-1.5-3.4-3.4v-15.6c0-1.9,1.5-3.4,3.4-3.4H141
		c1.9,0,3.4,1.5,3.4,3.4V144z M143.4,116.4c-0.6,0.6-1.5,1-2.4,1h-32.2c-1.9,0-3.4-1.5-3.4-3.4c0-0.9,0.4-1.8,1-2.4
		c0.6-0.6,1.5-1,2.4-1H141c1.9,0,3.4,1.5,3.4,3.4C144.4,115,144,115.8,143.4,116.4z M61.2,103.1c-1.9,0-3.4-1.5-3.4-3.4V78.3
		c0-1.9,1.5-3.4,3.4-3.4h127.4c1.9,0,3.4,1.5,3.4,3.4v21.4c0,1.9-1.5,3.4-3.4,3.4L61.2,103.1L61.2,103.1z"/>
	<path class="st0" d="M172.4,205.8c-11.1-3-24.9-7.8-27-13c-0.2-0.4-0.3-0.8-0.4-1.2h-40.4c-0.1,0.4-0.2,0.8-0.4,1.2
		c-2.3,5.9-19.6,11.2-31.1,14.1c-6.5,1.6-11.6,6.5-13.7,12.8H173c-0.4-1.1-0.6-2.2-0.6-3.4L172.4,205.8L172.4,205.8z"/>
	<path class="st0" d="M179.3,216.3c0,1.9,1.5,3.4,3.4,3.4h51c1.9,0,3.4-1.5,3.4-3.4v-10.6h-57.9V216.3z"/>
	<path class="st0" d="M233.7,124.9h-51c-1.9,0-3.4,1.5-3.4,3.4v70.4h57.9v-70.4C237.2,126.5,235.6,124.9,233.7,124.9z M224.3,187.3
		h-32.2c-1.9,0-3.4-1.5-3.4-3.4c0-1.9,1.5-3.4,3.4-3.4h32.2c1.9,0,3.4,1.5,3.4,3.4C227.7,185.8,226.2,187.3,224.3,187.3z
		 M227.7,169.2c0,1.9-1.5,3.4-3.4,3.4h-32.2c-1.9,0-3.4-1.5-3.4-3.4v-15.6c0-1.9,1.5-3.4,3.4-3.4h32.2c1.9,0,3.4,1.5,3.4,3.4V169.2z
		 M224.3,143.2h-32.2c-1.9,0-3.4-1.5-3.4-3.4c0-1.9,1.5-3.4,3.4-3.4h32.2c1.9,0,3.4,1.5,3.4,3.4
		C227.7,141.7,226.2,143.2,224.3,143.2z"/>
</g>
</svg>
