<?xml version="1.0" encoding="utf-8"?>
<!-- Generator: Adobe Illustrator 25.4.1, SVG Export Plug-In . SVG Version: 6.00 Build 0)  -->
<svg version="1.1" id="Layer_1" xmlns="http://www.w3.org/2000/svg" xmlns:xlink="http://www.w3.org/1999/xlink" x="0px" y="0px"
	 viewBox="0 0 283.5 283.5" style="enable-background:new 0 0 283.5 283.5;" xml:space="preserve">
<style type="text/css">
	.st0{fill-rule:evenodd;clip-rule:evenodd;fill:#C2948A;}
</style>
<g id="_x36_69_x2C__drag_x2C__mobile_x2C__design_x2C__ui_x2C__ux">
	<g>
		<path class="st0" d="M98.7,183.9v16.7c0,1.4,0.5,2.6,1.4,3.5l0.1,0.1c0.9,0.9,2.2,1.5,3.6,1.5h71.7c1.4,0,2.7-0.6,3.6-1.5
			c0.9-0.9,1.5-2.2,1.5-3.6v-16.7L98.7,183.9L98.7,183.9z M98.7,90.8v11.8h32.6c0.7,0,1.3,0.6,1.3,1.3v26.4c0,0.7-0.6,1.3-1.3,1.3
			H98.7v50h81.8v-3.9h-22.1c-0.7,0-1.3-0.6-1.3-1.3v-26.6c0-0.7,0.6-1.3,1.3-1.3h22.1V90.8H98.7z M175.4,71.3h-71.7h-0.1l0,0h-0.1
			l0,0h-0.1l0,0h-0.1h0h-0.1l0,0l-0.1,0h0h-0.1h0l-0.1,0h0h-0.1h0l0,0h0l0,0h0l-0.1,0h0l0,0h0l0,0h0l-0.1,0h0l0,0h0l0,0l0,0h0l0,0
			l0,0h0l0,0l0,0l0,0l0,0h0l0,0l0,0l0,0l0,0l0,0h0l0,0h0l0,0h0l-0.1,0h0l0,0h0l0,0l-0.1,0l0,0l0,0l-0.1,0h0l0,0l-0.1,0h0
			c-1.4,0.7-2.4,1.9-2.8,3.3l0,0.1l0,0l0,0.1v0l0,0.1l0,0.1l0,0.1l0,0.1l0,0.1l0,0.1l0,0l0,0.1l0,0.1l0,0.1l0,0.1V76l0,0.1v0.1v0.1
			l0,0.1v0.1v0.1v0.1v11.9h81.8V76.4v-0.1v-0.1v-0.1l0-0.1v-0.1V76l0-0.1l0-0.1v-0.1l0-0.1l0-0.1l0-0.1l0,0l0-0.1l0-0.1l0-0.1l0-0.1
			l0-0.1l0-0.1v0l0-0.1l0,0l0-0.1l0-0.1l0-0.1l0,0l0-0.1l0-0.1l0,0l0-0.1l0,0c-0.5-1.3-1.3-2.3-2.5-3l0,0l-0.1,0h0l-0.1-0.1l0,0
			l-0.1,0l0,0l-0.1,0l0,0l-0.2-0.1l0,0l-0.1,0l0,0l-0.1,0v0l-0.1,0l-0.1,0l0,0l-0.1,0h0l-0.1,0l-0.1,0l-0.1,0l0,0l-0.1,0l-0.1,0
			l-0.1,0l-0.1,0l-0.1,0l-0.1,0l0,0l-0.1,0l-0.1,0l-0.1,0H176l-0.1,0h-0.1l-0.1,0h-0.1l0,0h-0.1l-0.1,0L175.4,71.3L175.4,71.3
			L175.4,71.3z M130,129v-23.9c-16.3,0-32.5,0-48.8,0V129C97.5,129,113.7,129,130,129z M159.7,150.9V175c8.4,0,16.8,0,25.2,0
			l-3.5-10.2h0v0v0l0,0l0,0v0l0,0l0,0v0l0,0v0l0,0v0v0v0v0l0,0l0,0v0v0l0,0v0v0l0,0l0,0v0v0l0,0v0v0v0l0,0v0v0l0,0l0,0v0v0v0v0v0v0
			l0,0v0v0v0v0v0l0,0v0v0l0,0v0v0l0,0v0l0,0v0l0,0v0v0l0,0v0v0l0,0l0,0v0v0l0,0v0l0,0v0l0,0v0v0v0l0,0l0,0v0v0l0,0l0,0l0,0v0v0l0,0
			l0,0v0l0,0l0,0v0v0l0,0l0,0l0,0l0,0l0,0h0l0,0l0,0v0l0,0l0,0l0,0v0l0,0l0,0l0,0v0l0,0l0,0l0,0l0,0l0,0l0,0l0,0l0,0l0,0l0,0l0,0
			l0,0l0,0l0,0l0,0l0,0l0,0h0l0,0l0,0l0,0l0,0h0l0,0l0,0l0,0l0.1-0.1h0l0,0l0,0l0,0l0,0h0l0.1-0.1l0,0l0.1,0l0,0h0l0.1,0v0h0h0l0,0
			h0l0,0h0l0,0h0h0h0h0l0,0h0l0,0l0,0h0h0h0h0h0h0l0,0h0h0l0,0h0h0.1h0l0,0h0h0h0l0,0h0l0,0h0l0,0h0h0h0h0l0,0h0l0,0h0h0l0,0h0h0
			l0,0h0h0h0l0,0h0h0l0,0h0h0l0,0h0h0l0,0l0,0h0l0,0h0l6,2.1v-14.5C179.3,150.9,169.5,150.9,159.7,150.9z M142,192.4
			c-0.6-0.6-1.5-1-2.4-1c-0.9,0-1.8,0.4-2.4,1c-0.6,0.6-1,1.5-1,2.4c0,0.9,0.4,1.7,0.9,2.4l0.1,0.1c0.6,0.6,1.5,1,2.4,1
			c0.9,0,1.8-0.4,2.4-1c0.6-0.6,1-1.5,1-2.4C143,193.9,142.6,193,142,192.4z M139.6,188.9c1.6,0,3.1,0.7,4.2,1.7
			c1.1,1.1,1.7,2.5,1.7,4.2c0,1.6-0.7,3.1-1.7,4.2c-1.1,1.1-2.5,1.7-4.2,1.7c-1.6,0-3.1-0.7-4.2-1.7l-0.1-0.1
			c-1-1.1-1.6-2.5-1.6-4.1c0-1.6,0.7-3.1,1.7-4.2C136.5,189.6,138,188.9,139.6,188.9z M173.6,105h-20.2v24.1h20.2V105z M124.2,139.5
			c0.5,0,1-0.3,1.1-0.7c0.4-0.8-0.2-1.8-1.1-1.8h-2.5c-0.5,0-1,0.3-1.1,0.7c-0.4,0.8,0.2,1.8,1.1,1.8H124.2z M134.2,139.5
			c0.5,0,1-0.3,1.1-0.7c0.4-0.8-0.2-1.8-1.1-1.8h-2.5c-0.5,0-1,0.3-1.1,0.7c-0.4,0.8,0.2,1.8,1.1,1.8H134.2z M144.2,139.5
			c0.5,0,1-0.3,1.1-0.7c0.4-0.8-0.2-1.8-1.1-1.8h-2.5c-0.5,0-1,0.3-1.1,0.7c-0.4,0.8,0.2,1.8,1.1,1.8H144.2z M149.9,144.1
			c0.4,1.9,2.8,1.1,2.5-0.3c0-0.8-0.5-2.1-0.9-2.8c-0.9-1.5-3-0.1-2.2,1.2C149.6,142.6,149.9,143.6,149.9,144.1z M150,154
			c0,0.5,0.3,1,0.7,1.1c0.8,0.4,1.8-0.2,1.8-1.1v-2.5c0-0.5-0.3-1-0.7-1.1c-0.8-0.4-1.8,0.2-1.8,1.1V154z M150,164
			c0,0.5,0.3,1,0.7,1.1c0.8,0.4,1.8-0.2,1.8-1.1v-2.5c0-0.5-0.3-1-0.7-1.1c-0.8-0.4-1.8,0.2-1.8,1.1V164z M147.9,172.2
			c-0.5,0.4-0.7,1.2-0.2,1.7c0.4,0.6,1.2,0.7,1.8,0.3c0.8-0.6,1.4-1.3,2-2.2c0.5-0.9-0.3-2.1-1.3-1.9c-0.4,0.1-0.7,0.2-0.9,0.6
			C149,171.2,148.4,171.8,147.9,172.2z M139,173.2c-0.5,0-1,0.3-1.1,0.7c-0.4,0.8,0.2,1.8,1.1,1.8h2.5c0.5,0,1-0.3,1.1-0.7
			c0.4-0.8-0.2-1.8-1.1-1.8L139,173.2L139,173.2z M129,173.2c-0.5,0-1,0.3-1.1,0.7c-0.4,0.8,0.2,1.8,1.1,1.8h2.5
			c0.5,0,1-0.3,1.1-0.7c0.4-0.8-0.2-1.8-1.1-1.8L129,173.2L129,173.2z M118.9,173.2c-0.5,0-1,0.3-1.1,0.7c-0.4,0.8,0.2,1.8,1.1,1.8
			h2.5c0.5,0,1-0.3,1.1-0.7c0.4-0.8-0.2-1.8-1.1-1.8L118.9,173.2L118.9,173.2z M109.5,172.7c-1.6-0.7-2.4,1.7-1,2.3
			c1,0.4,1.8,0.6,2.9,0.7c1.8,0,1.6-2.5,0.1-2.5C110.7,173.2,110.2,173,109.5,172.7z M106.5,165.4c0-0.5-0.3-1-0.7-1.1
			c-0.8-0.4-1.8,0.2-1.8,1.1v2.5c0,0.5,0.3,1,0.7,1.1c0.8,0.4,1.8-0.2,1.8-1.1V165.4z M106.5,155.3c0-0.5-0.3-1-0.7-1.1
			c-0.8-0.4-1.8,0.2-1.8,1.1v2.5c0,0.5,0.3,1,0.7,1.1c0.8,0.4,1.8-0.2,1.8-1.1V155.3z M106.5,145.3c0-0.5-0.3-1-0.7-1.1
			c-0.8-0.4-1.8,0.2-1.8,1.1v2.5c0,0.5,0.3,1,0.7,1.1c0.8,0.4,1.8-0.2,1.8-1.1V145.3z M111.6,137c-0.1,0-0.2,0-0.4,0.1
			c-0.1,0-0.3,0-0.5,0c-0.8,0-2.1,0.5-2.8,0.9c-1.5,0.9-0.1,3,1.2,2.2c0.4-0.2,1.4-0.6,1.9-0.6l0.2-0.1l0.3,0h2.5
			c0.5,0,1-0.3,1.1-0.7c0.4-0.8-0.2-1.8-1.1-1.8H111.6z M86.5,112.2c-0.7,0-1.3-0.6-1.3-1.3c0-0.7,0.6-1.3,1.3-1.3h14.7
			c0.7,0,1.3,0.6,1.3,1.3c0,0.7-0.6,1.3-1.3,1.3H86.5z M86.5,118.3c-0.7,0-1.3-0.6-1.3-1.3c0-0.7,0.6-1.3,1.3-1.3h30.8
			c0.7,0,1.2,0.6,1.2,1.3c0,0.7-0.6,1.3-1.2,1.3H86.5z M86.5,123.4c-0.7,0-1.3-0.6-1.3-1.3c0-0.7,0.6-1.3,1.3-1.3h30.8
			c0.7,0,1.2,0.6,1.2,1.3c0,0.7-0.6,1.3-1.2,1.3H86.5z M133.2,80.1c-0.7,0-1.3-0.6-1.3-1.3s0.6-1.3,1.3-1.3H146
			c0.7,0,1.3,0.6,1.3,1.3s-0.6,1.3-1.3,1.3H133.2z M95.1,214.3c-0.7,0-1.3-0.6-1.3-1.3c0-0.7,0.6-1.3,1.3-1.3h79.5
			c0.7,0,1.3,0.6,1.3,1.3c0,0.7-0.6,1.3-1.3,1.3H95.1z M138,219.7c-0.7,0-1.3-0.6-1.3-1.3c0-0.7,0.6-1.3,1.3-1.3h61.2
			c0.7,0,1.3,0.6,1.3,1.3c0,0.7-0.6,1.3-1.3,1.3H138z M205.5,219.7c-0.7,0-1.3-0.6-1.3-1.3c0-0.7,0.6-1.3,1.3-1.3h7.7
			c0.7,0,1.3,0.6,1.3,1.3c0,0.7-0.6,1.3-1.3,1.3H205.5z M82.7,219.5c-0.7,0-1.3-0.6-1.3-1.3s0.6-1.3,1.3-1.3h29
			c0.7,0,1.3,0.6,1.3,1.3s-0.6,1.3-1.3,1.3H82.7z M154.6,66.3c-0.7,0-1.3-0.6-1.3-1.3s0.6-1.3,1.3-1.3h26.7c2.1,0,4,0.9,5.4,2.2
			l0.1,0.1c1.3,1.4,2.2,3.2,2.2,5.3v19.2c0,0.7-0.6,1.3-1.3,1.3s-1.3-0.6-1.3-1.3V71.4c0-1.4-0.6-2.6-1.4-3.5l-0.1-0.1
			c-0.9-0.9-2.2-1.5-3.6-1.5L154.6,66.3L154.6,66.3z M70.3,139.1c-0.7,0-1.3-0.6-1.3-1.3c0-0.7,0.6-1.3,1.3-1.3h21
			c0.7,0,1.3,0.6,1.3,1.3c0,0.7-0.6,1.3-1.3,1.3H70.3z M70.3,145.2c-0.7,0-1.3-0.6-1.3-1.3s0.6-1.3,1.3-1.3h21
			c0.7,0,1.3,0.6,1.3,1.3s-0.6,1.3-1.3,1.3H70.3z M70.3,151.3c-0.7,0-1.3-0.6-1.3-1.3c0-0.7,0.6-1.3,1.3-1.3h21
			c0.7,0,1.3,0.6,1.3,1.3c0,0.7-0.6,1.3-1.3,1.3H70.3z M70.3,157.4c-0.7,0-1.3-0.6-1.3-1.3c0-0.7,0.6-1.3,1.3-1.3h21
			c0.7,0,1.3,0.6,1.3,1.3c0,0.7-0.6,1.3-1.3,1.3H70.3z M70.3,163.5c-0.7,0-1.3-0.6-1.3-1.3c0-0.7,0.6-1.3,1.3-1.3h21
			c0.7,0,1.3,0.6,1.3,1.3c0,0.7-0.6,1.3-1.3,1.3H70.3z M70.3,169.6c-0.7,0-1.3-0.6-1.3-1.3c0-0.7,0.6-1.3,1.3-1.3h21
			c0.7,0,1.3,0.6,1.3,1.3c0,0.7-0.6,1.3-1.3,1.3H70.3z M196.5,177.1l3.3,3.3l-1.2,1.2l-3.3-3.3l-5,4.9c-1.9-5.5-3.8-11.1-5.7-16.6
			c5.6,2,11.1,3.9,16.7,5.9L196.5,177.1z M152.1,102.5h22.7c0.7,0,1.3,0.6,1.3,1.3v26.6c0,0.7-0.6,1.3-1.3,1.3h-22.7
			c-0.7,0-1.3-0.6-1.3-1.3v-26.6C150.8,103,151.4,102.5,152.1,102.5z"/>
	</g>
</g>
<g id="Layer_1_00000096035939233793131360000011719798294321504414_">
</g>
</svg>
